{"title":"Maalai Nerathu Mayakkam 2015 Movies PDVDRip XviD Audio New ☻rDX☻","uid":13123944,"size":739906586,"categoryP":"video","categoryS":"movies","magnet":"?xt=urn:btih:e66ae204e850e3086c6910a77edeb9a25196eca4&amp;dn=Maalai+Nerathu+Mayakkam+2015+Movies+PDVDRip+XviD+Audio+New+%E2%98%BBrDX%E2%98%BB&amp;tr=udp%3A%2F%2Ftracker.leechers-paradise.org%3A6969&amp;tr=udp%3A%2F%2Fzer0day.ch%3A1337&amp;tr=udp%3A%2F%2Fopen.demonii.com%3A1337&amp;tr=udp%3A%2F%2Ftracker.coppersurfer.tk%3A6969&amp;tr=udp%3A%2F%2Fexodus.desync.com%3A6969","seeders":0,"leechers":1,"uploader":"basicssom","files":2,"time":1451747288,"description":"----------------------------------------------------------------\r\nMaalai Nerathu Mayakkam 2015 Tamil Movies PDVDRip XviD AAC Audio Cleaned New +Sample ~ ☻rDX☻\r\n\r\nSCREEN SHOTS &amp; POSTER:\r\n  \nhttp://doctorhosts.com/2016/1/MaalaiNerathuMayakkam/11.html  \nhttp://doctorhosts.com/2016/1/MaalaiNerathuMayakkam/1.html  \nhttp://doctorhosts.com/2016/1/MaalaiNerathuMayakkam/2.html  \nhttp://doctorhosts.com/2016/1/MaalaiNerathuMayakkam/3.html  \nhttp://doctorhosts.com/2016/1/MaalaiNerathuMayakkam/4.html  \nhttp://doctorhosts.com/2016/1/MaalaiNerathuMayakkam/5.html  \nhttp://doctorhosts.com/2016/1/MaalaiNerathuMayakkam/6.html  \nhttp://doctorhosts.com/2016/1/MaalaiNerathuMayakkam/7.html  \nhttp://doctorhosts.com/2016/1/MaalaiNerathuMayakkam/8.html  \nhttp://doctorhosts.com/2016/1/MaalaiNerathuMayakkam/9.html  \nhttp://doctorhosts.com/2016/1/MaalaiNerathuMayakkam/10.html\r\n\r\nFormat                                   : Matroska\r\nFormat version                           : Version 4 / Version 2\r\nFile size                                : 700 MiB\r\nDuration                                 : 2h 2mn\r\nOverall bit rate                         : 802 Kbps\r\nMovie name                               : Maalai Nerathu Mayakkam 2015 Tamil Movies PDVDRip XviD AAC Audio Cleaned New ~ rDX ~\r\n\r\nVideo\r\nID                                       : 1\r\nFormat                                   : AVC\r\nFormat/Info                              : Advanced Video Codec\r\nFormat profile                           :   \r\nFormat settings, CABAC                   : Yes\r\nFormat settings, ReFrames                : 4 frames\r\nCodec ID                                 : V_MPEG4/ISO/AVC\r\nDuration                                 : 2h 2mn\r\nBit rate                                 : 704 Kbps\r\nWidth                                    : 608 pixels\r\nHeight                                   : 256 pixels\r\nDisplay aspect ratio                     : 2.40:1\r\nFrame rate mode                          : Constant\r\nFrame rate                               : 25.000 fps\r\nColor space                              : YUV\r\nChroma subsampling                       : 4:2:0\r\nBit depth                                : 8 bits\r\nScan type                                : Progressive\r\nBits/(Pixel*Frame)                       : 0.181\r\nStream size                              : 602 MiB (86%)\r\nTitle                                    : ~ rDX ~\r\nWriting library                          : XviD\r\nLanguage                                 : Tamil\r\nDefault                                  : Yes\r\nForced                                   : Yes\r\n\r\nAudio\r\nID                                       : 2\r\nFormat                                   : MPEG Audio\r\nFormat version                           : Version 1\r\nFormat profile                           : Layer 3\r\nMode                                     : Joint stereo\r\nMode extension                           : MS Stereo\r\nCodec ID                                 : A_MPEG/L3\r\nCodec ID/Hint                            : MP3\r\nDuration                                 : 2h 2mn\r\nBit rate mode                            : Constant\r\nBit rate                                 : 96.0 Kbps\r\nChannel(s)                               : 2 channels\r\nSampling rate                            : 44.1 KHz\r\nCompression mode                         : Lossy\r\nStream size                              : 83.8 MiB (12%)\r\nTitle                                    : ~ rDX ~\r\nWriting library                          : LAME3.98r\r\nEncoding settings                        : -m j -V 4 -q 3 -lowpass 15.1 -b 96\r\nLanguage                                 : Tamil\r\nDefault                                  : Yes\r\nForced                                   : Yes\r\n\r\nIMDB                                     \r\nna","torrent":{"xt":"urn:btih:e66ae204e850e3086c6910a77edeb9a25196eca4","amp;dn":"Maalai+Nerathu+Mayakkam+2015+Movies+PDVDRip+XviD+Audio+New+%E2%98%BBrDX%E2%98%BB","amp;tr":["udp%3A%2F%2Ftracker.leechers-paradise.org%3A6969","udp%3A%2F%2Fzer0day.ch%3A1337","udp%3A%2F%2Fopen.demonii.com%3A1337","udp%3A%2F%2Ftracker.coppersurfer.tk%3A6969","udp%3A%2F%2Fexodus.desync.com%3A6969"],"infoHash":"e66ae204e850e3086c6910a77edeb9a25196eca4","infoHashBuffer":{"type":"Buffer","data":[230,106,226,4,232,80,227,8,108,105,16,167,126,222,185,162,81,150,236,164]},"announce":[],"urlList":[]}}